<svg xmlns="http://www.w3.org/2000/svg" width="200" height="200" viewBox="0 0 200 200" fill="none">
  <!-- Two overlapping hearts with chat bubble suggestion -->
  <path d="M72 65c-16-18-42-18-42 4 0 28 42 46 42 46s42-18 42-46c0-22-26-22-42-4z" fill="white" opacity="0.9"/>
  <path d="M128 85c-12-14-32-14-32 3 0 21 32 35 32 35s32-14 32-35c0-17-20-17-32-3z" fill="white" opacity="0.6"/>
  <!-- Small sparkle dots -->
  <circle cx="50" cy="50" r="3" fill="white" opacity="0.4"/>
  <circle cx="155" cy="65" r="2.5" fill="white" opacity="0.5"/>
  <circle cx="140" cy="135" r="2" fill="white" opacity="0.3"/>
  <circle cx="60" cy="130" r="2.5" fill="white" opacity="0.35"/>
</svg>
